<?xml version="1.0" encoding="UTF-8"?>
<!--Generator: Apple Native CoreSVG 326-->
<!DOCTYPE svg
PUBLIC "-//W3C//DTD SVG 1.1//EN"
       "http://www.w3.org/Graphics/SVG/1.1/DTD/svg11.dtd">
<svg version="1.1" xmlns="http://www.w3.org/2000/svg" xmlns:xlink="http://www.w3.org/1999/xlink" viewBox="0 0 56.3085 38.8794">
 <g>
  <rect height="38.8794" opacity="0" width="56.3085" x="0" y="0"/>
  <path d="M3.84397 38.8794L51.2341 38.8794C52.0544 38.8794 52.7551 38.1958 52.7551 37.3755C52.7551 36.5381 52.0544 35.8545 51.2341 35.8545L3.84397 35.8545C3.02366 35.8545 2.32297 36.5381 2.32297 37.3755C2.32297 38.1958 3.02366 38.8794 3.84397 38.8794Z" fill="white" fill-opacity="0.85"/>
  <path d="M11.9616 24.6265L49.5251 14.646C53.8318 13.501 56.8225 10.4932 55.7116 7.43408C54.6692 4.64844 50.6018 3.93066 46.7566 5.22949L33.8879 9.62158C33.0334 9.91211 32.384 9.89502 31.4099 9.43359L12.7649 0.632324C12.2009 0.358887 11.6198 0.324707 11.0559 0.478516L9.63743 0.922852C9.12473 1.07666 8.93674 1.6748 9.39817 2.13623L21.9421 15.3638L22.301 13.5864L11.4319 17.2949L15.1233 17.3975L2.51096 12.9541C1.92991 12.749 1.45139 12.8345 0.887426 13.3472L0.323461 13.877C-0.086695 14.2529-0.103785 14.7314 0.255102 15.1245L8.03098 23.8232C8.95383 24.8657 10.2868 25.0708 11.9616 24.6265Z" fill="white" fill-opacity="0.85"/>
 </g>
</svg>
